<svg width="180" height="180" viewBox="0 0 180 180" fill="none" xmlns="http://www.w3.org/2000/svg">
<path d="M0 59.76C0 10.5476 10.5476 0 59.76 0H120.24C169.452 0 180 10.5476 180 59.76V120.24C180 169.452 169.452 180 120.24 180H59.76C10.5476 180 0 169.452 0 120.24V59.76Z" fill="url(#paint0_radial_4646_155)"/>
<path d="M41.3258 112.458C39.4448 112.567 38.0292 112.382 36.4259 111.198C34.7792 109.702 33.8726 108.202 33.6744 105.981C33.6657 105.15 33.6932 104.329 33.7328 103.502L33.7686 102.526C33.9788 97.3495 34.3229 92.1851 34.6671 87.0237L34.716 86.277C34.7435 85.8549 34.7708 85.4326 34.7978 85.0105C35.5746 73.0443 36.3901 63.3884 38.2611 61.3258C39.6341 60.2591 41.0114 59.6615 42.8541 59.8188C44.8446 60.197 46.3761 60.8886 47.7326 62.4588C48.9414 64.7035 49.1629 66.5719 48.8516 68.9677L48.7572 69.8686C48.6903 70.4973 47.8051 80.7814 47.7326 81.409C47.5577 82.9293 47.4087 84.4534 47.263 85.9782L47.1715 86.9287C46.6929 92.0871 46.4793 97.2879 46.2661 102.48L46.2661 102.481L46.2424 103.056L46.1932 104.162C46.1634 104.838 46.1369 105.513 46.1137 106.189C45.96 109.601 44.6708 111.476 41.3258 112.458Z" fill="#00A3EE"/>
<path fill-rule="evenodd" clip-rule="evenodd" d="M27.2121 88.7978C25.6741 88.0199 23.9728 87.8296 22.567 88.9476C21.0856 90.3648 21.0856 90.3648 20.8202 96.1072L20.7922 96.7279C20.3424 106.384 20.5315 116.015 21.4648 125.643L21.5264 126.273C21.5841 126.871 21.6424 127.469 21.704 128.067L21.7613 128.617C21.87 129.723 22.0173 130.749 22.466 131.787C23.2551 132.859 23.9362 133.402 25.2851 133.758C26.6829 133.813 27.7539 133.555 28.8089 132.663C29.9713 131.141 29.8289 129.599 29.6001 127.82C28.2385 117.629 28.2249 107.376 28.612 97.1308L28.6684 95.6483L28.6732 95.5199C28.6944 94.9494 28.7155 94.3787 28.7396 93.8085L28.7579 93.3745L28.7887 92.5666C28.8507 91.1529 28.5159 89.7066 27.2121 88.7978ZM133.955 119.091C133.767 117.874 133.254 117.099 132.43 116.279C131.158 115.577 129.736 115.338 128.472 116.176C128.315 116.299 128.162 116.419 128.01 116.538L127.493 116.937C127.162 117.194 126.829 117.448 126.493 117.698L126.02 118.046C123.596 119.83 121.15 121.571 118.691 123.292C118.126 123.685 117.564 124.082 117.004 124.482C114.729 126.123 112.394 127.621 110.031 129.096C109.134 129.656 108.24 130.22 107.35 130.792C105.322 132.093 103.289 133.366 101.213 134.565C101.129 134.612 101.046 134.659 100.962 134.706C99.4872 135.535 97.9511 136.399 96.9936 137.949C96.6574 139.132 96.6399 140.184 96.9936 141.378C97.5998 142.364 98.1903 143.033 99.1502 143.563C100.233 143.816 101.155 143.752 102.167 143.232L102.838 142.804L103.581 142.336C104.051 142.038 104.523 141.745 104.998 141.456C113.605 136.308 122.081 130.799 130.196 124.714L130.637 124.383C131.458 123.774 132.268 123.168 133.01 122.44C133.797 121.451 134.014 120.395 133.955 119.091ZM93.5534 145.004C93.2228 144.025 92.7995 143.367 91.935 142.777C90.7373 142.189 89.6104 142.137 88.4131 142.702L87.9817 142.931L87.4781 143.194C80.0308 147.122 72.4815 150.795 64.5783 153.714L64.0104 153.923L62.9358 154.321C56.7082 156.56 59.2921 163.298 64.9881 161.156L65.4939 160.956C66.0568 160.741 66.6192 160.524 67.1804 160.304C67.5766 160.149 67.9732 159.994 68.3701 159.839C71.1175 158.773 73.8435 157.672 76.5217 156.44C77.148 156.148 77.7752 155.858 78.4034 155.57C82.6026 153.654 86.7889 151.654 90.8085 149.378L91.2564 149.121C91.7662 148.836 92.194 148.553 92.6647 148.197C93.4281 147.134 93.6719 146.292 93.5534 145.004ZM91.1562 112.743C90.6448 111.739 90.0798 111.137 89.0621 110.647C87.9788 110.528 87.1336 110.537 86.1751 111.061C81.6371 113.575 77.0524 115.977 72.3657 118.2L71.8509 118.443C70.1178 119.265 68.3851 120.087 66.6307 120.861L66.2311 121.038C65.7398 121.257 60.2792 124.052 59.7878 124.27C59.689 124.312 59.5909 124.353 59.4935 124.393C58.4718 124.82 57.5343 125.211 56.8428 126.134C56.269 127.183 56.1327 127.987 56.3716 129.184C56.8124 130.106 57.2327 130.803 58.1499 131.27C59.3614 131.72 60.206 131.698 61.4352 131.249L62.0781 130.966C62.4861 130.786 67.8626 128.028 68.2691 127.845L68.7489 127.629C73.1179 125.677 77.4115 123.578 81.641 121.339C82.5281 120.866 83.4156 120.394 84.3113 119.937C84.8195 119.679 85.3274 119.421 85.835 119.162L86.6014 118.771C86.7514 118.696 86.9014 118.621 87.0511 118.547C88.6466 117.757 90.2008 116.987 91.1562 115.404C91.4167 114.442 91.4117 113.704 91.1562 112.743ZM121.327 112.495C120.976 110.77 120.069 109.707 118.669 108.601C116.564 107.703 114.623 107.559 112.559 108.619L97.5903 118.353L96.6974 118.84C96.036 119.202 95.3742 119.564 94.7118 119.924L93.6506 120.502L93.3143 120.686C87.864 123.658 82.4121 126.631 76.8837 129.464L76.1778 129.824C73.6203 131.131 71.0516 132.412 68.4531 133.639L67.7071 133.99C66.5332 134.542 62.0187 136.648 60.8389 137.188L60.1887 137.486L58.9683 138.05C57.0976 138.903 55.7577 139.877 54.4565 141.448C52.8167 145.014 54.5225 147.889 58.1138 149.286C60.2799 149.624 62.3609 149.46 64.2828 148.55L65.1414 148.129C65.8013 147.81 66.461 147.492 67.1204 147.173C68.1907 146.647 72.6023 144.576 73.6794 144.065C80.0706 141.051 86.2983 137.751 92.5101 134.403C93.1949 134.034 93.8804 133.665 94.5664 133.297C95.6734 132.704 96.7789 132.108 97.8831 131.51L99.1329 130.833L99.4018 130.689C101.8 129.403 118.365 118.822 120.335 116.937C121.31 115.473 121.469 114.198 121.327 112.495ZM81.0079 52.9368C80.4182 52.6431 79.8267 52.3533 79.2333 52.0673C76.952 51.0088 75.2147 50.5848 73.1055 52.1833C72.1893 53.2621 71.8033 54.2859 71.8707 55.6998C72.35 57.2976 73.1482 58.3073 74.5758 59.1387C74.998 59.3357 75.4194 59.5342 75.8402 59.7343L76.3129 59.9596C83.534 63.3477 90.398 67.3673 97.0445 71.8067C97.2647 71.956 97.4852 72.1099 97.7069 72.2646C99.0892 73.229 100.517 74.2252 102.2 74.3657C103.735 74.2124 104.533 73.5272 105.533 72.3718C106.1 71.2197 106.082 70.2762 105.95 69.0123C105.862 68.5734 105.8 68.2636 105.67 67.9864C105.359 67.3217 104.66 66.8448 102.284 65.224L101.752 64.8678C95.3474 60.5611 88.6775 56.7201 81.7725 53.3126L81.0079 52.9368ZM122.457 47.408C121.118 46.3291 119.763 45.2372 118.221 44.5298C116.447 44.2438 115.389 44.4797 114.055 45.7766C113.244 47.0411 113.231 48.2794 113.36 49.7663C114.075 51.306 115.212 52.17 116.509 53.1084C116.965 53.4323 117.42 53.7582 117.874 54.0861L118.565 54.5848C122.283 57.2512 125.899 60.0684 129.463 62.9664C130.37 63.7091 138.568 69.8324 139.488 70.5553L140.035 70.9672C140.601 71.3974 140.952 71.6026 141.64 71.7273C142.995 71.7909 144.033 71.5363 145.059 70.5329C145.98 69.4003 145.998 68.3056 145.984 66.8431C145.781 65.5054 145.182 64.8042 144.192 63.9997L143.807 63.697L142.986 63.0357C142.489 62.641 134.711 56.8525 134.219 56.451C131.414 54.1595 128.554 51.9462 125.643 49.8131L125.627 49.801C124.677 49.1067 123.728 48.4135 122.8 47.6846C122.686 47.5927 122.571 47.5004 122.457 47.408ZM31.4732 61.5879C30.4724 59.5845 28.3078 58.4792 26.2508 59.7402C25.3803 60.5063 24.9129 61.3785 24.6737 62.5098L24.5887 62.9637C23.6998 67.4653 23.0104 72.0136 22.416 76.5629L22.272 77.6788C22.2018 78.208 22.1319 78.7372 22.0655 79.2668L22.0046 79.759C21.6704 82.2531 21.8401 84.4269 24.3531 85.4884C25.5321 85.7019 26.4906 85.5371 27.4943 84.8595C28.5418 83.8108 28.7556 82.5566 28.9152 81.1184C28.9477 80.8038 28.9816 80.4895 29.0168 80.1754L29.075 79.658C29.5158 75.6745 30.1011 71.7326 30.8169 67.7895C30.8781 67.4531 30.9442 67.1142 31.0106 66.7737C31.3436 65.0656 31.6857 63.3111 31.4732 61.5879ZM44.6105 120.761C44.0854 119.238 43.3235 118.138 41.8511 117.299C39.4902 116.383 37.0438 116.65 35.2534 118.351C32.4292 121.506 32.4292 121.506 34.7938 146.358C34.8172 146.608 34.8405 146.851 34.8639 147.094C34.8896 147.384 34.9128 147.673 34.936 147.962C35.1154 150.202 35.2911 152.394 36.638 154.351C37.815 155.413 38.8353 155.849 40.4636 156C42.3717 156.088 43.6216 155.523 45.0465 154.373C46.4488 152.699 46.4381 150.989 46.3213 148.939C46.2562 148.313 46.1913 147.688 46.1295 147.063L46.0594 146.345C45.6619 142.369 45.3255 138.399 45.1718 134.41L45.1299 133.248C45.06 131.331 44.9915 129.414 44.9402 127.497C44.921 126.766 44.8995 126.035 44.8759 125.304L44.8418 124.27C44.8197 123.091 44.7924 121.931 44.6105 120.761ZM39.933 26.6242C38.4222 27.3931 37.6505 28.3999 36.9224 29.7312L36.6142 30.3223C33.826 35.6452 31.4647 41.1741 29.504 46.7538L29.3201 47.2793C29.2309 47.5297 29.1363 47.7849 29.0405 48.0437C28.329 49.9642 27.5414 52.0904 28.2491 54.0466C29.7241 56.7044 33.0437 57.2829 35.7305 56.1555C37.6906 54.8666 37.6906 54.8666 38.8251 51.315C39.1468 50.2816 39.4795 49.2508 39.8229 48.2225L40.0323 47.5972C41.1071 44.3697 42.4914 41.2612 44.0568 38.1818C44.4066 37.4962 44.7547 36.8099 45.1011 36.1231C45.3556 35.6164 45.6151 35.1114 45.8795 34.6083C48.5592 29.5415 45.4179 25.228 39.933 26.6242ZM114.162 72.8827C113.969 72.7691 113.759 72.6771 113.367 72.5049C111.672 72.3012 110.592 72.3008 109.181 73.1487C108.18 73.843 107.561 74.5565 107.339 75.6801C107.224 77.0793 107.682 78.0729 108.714 79.1881C110.221 80.6042 111.508 82.0357 112.482 83.7685C113.627 86.3167 114.022 89.0393 112.82 91.6119C112.488 92.2688 112.183 92.921 111.918 93.6002C111.631 95.2471 112.074 96.3678 113.193 97.7207C113.951 98.3473 114.497 98.6874 115.543 98.8163C117.341 98.8888 118.279 98.6617 119.663 97.678C122.413 95.1593 122.724 90.9281 122.747 87.6164C122.58 82.6056 119.717 77.4616 115.56 73.9479L115.011 73.5134C114.583 73.172 114.384 73.0132 114.162 72.8827ZM94.1499 29.4448C93.2428 28.9124 92.3337 28.3956 91.4046 27.9057C88.9495 26.8312 86.6293 27.1453 85.1856 29.6778C84.6903 30.9163 84.6379 31.8659 84.97 33.1868C85.1945 33.7559 85.3491 34.1477 85.5764 34.4855C86.0784 35.2317 86.9351 35.7143 89.6845 37.263C91.0574 38.025 91.8869 38.5007 91.8869 38.5007C93.0702 39.171 94.2451 39.8577 95.4112 40.5604L96.0659 40.9556C97.2244 41.6488 98.3823 42.342 99.5247 43.0645L100.308 43.5619L101.861 44.5298C103.724 45.7454 105.218 46.4593 107.449 46.0735C108.482 45.6144 109.044 45.0071 109.693 44.0546C110.286 42.7826 110.229 41.539 110.003 40.1671C109.549 38.6516 109.549 38.6516 106.833 37.1052C105.758 36.4974 104.697 35.8619 103.651 35.1993C100.849 33.4225 98.0306 31.6766 95.1599 30.0239L94.1499 29.4448ZM75.9214 22.0659L75.4212 21.9113C68.9364 19.8708 57.1589 16.6365 50.7208 20.2578C49.7926 21.1066 49.4304 21.8272 49.2364 23.1341C49.2487 24.3467 49.6086 25.3325 50.3535 26.227C51.4779 27.242 51.4779 27.242 55.3913 27.102C56.2125 27.0712 57.0334 27.0535 57.8548 27.0359L58.4562 27.0235C61.0627 26.9629 63.5994 27.1605 66.1757 27.6144L66.9066 27.7502C68.7977 28.0975 70.643 28.5191 72.484 29.1111C73.8251 29.5647 75.079 29.9053 76.4836 30.0238C77.7697 29.5983 78.5557 29.1122 79.2333 27.8191C79.5198 26.5134 79.5503 25.8746 79.2178 24.5809C78.4454 23.1528 77.3448 22.5449 75.9214 22.0659ZM110.911 100.916C110.769 99.8197 110.215 99.2273 109.39 98.5428C107.915 97.64 106.459 98.0572 105.182 99.0411C102.685 100.995 100.113 102.901 97.3902 104.53L96.9936 104.764L96.61 104.99C96.4013 105.113 96.1881 105.234 95.9739 105.356C94.798 106.023 93.589 106.709 92.897 107.895C92.5134 108.834 92.5542 109.681 92.8315 110.647C93.3429 111.652 93.9079 112.253 94.9256 112.743C95.5734 112.815 96.0691 112.87 96.558 112.834C98.1518 112.717 99.6744 111.631 106.159 107.009L106.64 106.663C107.818 105.818 108.94 104.927 110.003 103.938C110.889 102.962 110.929 102.183 110.911 100.916ZM157.827 79.8647C157.094 78.3634 156.491 77.3675 154.705 76.4748C151.72 75.8309 149.891 76.6324 148.505 78.7829C148.403 79.7346 148.463 80.414 148.853 81.3208C149.192 81.9332 149.516 82.5505 149.826 83.1724C152.878 89.5976 152.804 96.8849 149.326 103.179C148.538 104.588 148.199 105.523 148.505 107.056C149.196 108.001 149.845 108.436 150.99 109.039C152.418 109.438 152.988 109.767 154.447 109.468C155.828 108.937 156.604 107.694 157.233 106.612L157.622 105.902L158.068 105.12C162.205 97.3338 161.974 88.3461 158.155 80.5162L157.827 79.8647Z" fill="url(#paint1_linear_4646_155)"/>
<path fill-rule="evenodd" clip-rule="evenodd" d="M68.4645 52.2883L68.3825 52.7886C68.0666 54.6659 67.6768 56.5296 67.2803 58.3929L67.0435 59.5154C66.8794 60.2927 66.7149 61.07 66.5501 61.8471C66.3403 62.8341 66.1316 63.8213 65.9242 64.8088C65.8017 65.3901 65.6809 65.961 65.5599 66.5329C65.4425 67.0879 65.3249 67.6438 65.2053 68.211C64.8439 69.9256 64.4757 71.6386 64.0582 73.3423C63.6406 75.046 62.8263 75.7054 61.357 76.2977C59.6763 76.5986 58.5089 76.5376 56.8517 75.9034C54.6655 74.6193 53.9862 73.3451 54.4638 70.9605L54.5773 70.3578C54.7018 69.7004 54.8311 69.044 54.9607 68.3876C55.0492 67.9288 55.1376 67.47 55.2257 67.011C55.8765 63.6546 56.5767 60.3073 57.2988 56.9639L57.4422 56.3C57.7023 55.0992 57.9681 53.8996 58.2419 52.7012C58.3518 52.2166 58.4571 51.7313 58.5621 51.2459C58.625 50.9719 58.6881 50.6979 58.7515 50.4241L58.9058 49.7332C59.2862 48.776 59.9737 48.0239 61.2258 47.5828C64.516 46.5224 69.156 48.2222 68.4645 52.2883ZM62.9878 81.7108C62.4923 80.6628 61.7917 79.9552 60.4719 79.3873C59.0242 78.9476 57.4234 78.9221 56.0997 79.492L55.4683 79.8204L54.8351 80.1388C53.6937 80.9976 53.5213 82.1429 53.3674 83.3027L53.3099 83.8139C52.5479 90.3392 52.3293 96.9449 52.9162 103.521L52.9817 104.18C53.1084 105.595 53.346 106.636 54.41 107.874C55.7616 108.739 56.8549 108.998 58.6266 109.045C60.0745 108.963 60.864 108.463 61.8292 107.751C62.9331 106.377 62.9331 106.377 62.6235 103.042C62.2113 98.8691 62.1867 94.7369 62.479 90.5797C62.5138 90.089 62.5479 89.5982 62.5815 89.1074L62.5856 89.0464C62.6519 88.0738 62.7181 87.1013 62.7974 86.1297C62.8363 85.6543 62.8729 85.1787 62.9071 84.703L62.9545 84.0275C63.0263 83.2503 63.0938 82.4921 62.9878 81.7108Z" fill="url(#paint2_linear_4646_155)"/>
<path fill-rule="evenodd" clip-rule="evenodd" d="M68.4019 32.8008L67.2383 32.281C66.9389 32.145 66.6363 32.0013 66.3309 31.8561C64.4938 30.9832 62.5467 30.058 60.4851 30.4567C59.256 30.816 58.4166 31.8003 57.7759 32.8185C57.4646 33.9201 57.4203 34.756 57.7759 35.8495C58.6496 37.3905 58.6496 37.3905 64.5719 39.9377C68.3287 41.5534 72.0389 43.2344 75.7036 45.0367L76.4516 45.4058C82.7264 48.4963 88.9141 51.7292 95.0004 55.1496L95.5164 55.4399C96.4327 55.9512 113.163 65.786 114.055 66.3369C114.339 66.5145 114.625 66.7003 114.911 66.8861C116.513 67.9254 118.168 68.9999 120.129 69.0607C121.267 68.9284 122.054 68.6359 122.899 67.8662C123.811 66.8253 124.212 65.8723 124.144 64.5215C123.497 62.4867 122.147 61.597 120.335 60.5425L119.615 60.1316C116.942 58.5892 98.4275 47.7626 95.7198 46.2766C94.9524 45.8561 94.1851 45.4357 93.4202 45.0114C86.6321 41.2407 79.6024 37.8867 72.5165 34.6648L71.9694 34.4161C70.7823 33.8735 69.5931 33.3351 68.4019 32.8008Z" fill="url(#paint3_linear_4646_155)"/>
<path d="M55.1607 47.2536C55.1607 50.2808 52.7095 52.7348 49.6858 52.7348C46.6621 52.7348 44.2109 50.2808 44.2109 47.2536C44.2109 44.2265 46.6621 41.7725 49.6858 41.7725C52.7095 41.7725 55.1607 44.2265 55.1607 47.2536Z" fill="#01A3EE"/>
<ellipse cx="58.6648" cy="116.316" rx="4.81789" ry="4.82341" fill="#00A2EE"/>
<ellipse cx="51.6565" cy="158.191" rx="4.3799" ry="4.60416" fill="#00A2EE"/>
<path d="M134.218 78.6064C134.218 78.6064 137.912 86.7412 137.721 93.0767C137.547 98.8904 134.656 106.889 134.656 106.889" stroke="url(#paint4_linear_4646_155)" stroke-width="11.3245" stroke-linecap="round"/>
<defs>
<radialGradient id="paint0_radial_4646_155" cx="0" cy="0" r="1" gradientTransform="matrix(-2.05882 111.253 -111.253 -3.25135 90 90)" gradientUnits="userSpaceOnUse">
<stop offset="0.25887" stop-color="#002940"/>
<stop offset="0.819279" stop-color="#00131E"/>
<stop offset="1" stop-color="#000910"/>
</radialGradient>
<linearGradient id="paint1_linear_4646_155" x1="20.5591" y1="89.7836" x2="163.723" y2="89.7836" gradientUnits="userSpaceOnUse">
<stop offset="0.3125" stop-color="#00A3EE"/>
<stop offset="0.591346" stop-color="#00A3FF"/>
<stop offset="1" stop-color="#003780"/>
</linearGradient>
<linearGradient id="paint2_linear_4646_155" x1="20.5591" y1="89.7836" x2="163.723" y2="89.7836" gradientUnits="userSpaceOnUse">
<stop offset="0.3125" stop-color="#00A3EE"/>
<stop offset="0.591346" stop-color="#00A3FF"/>
<stop offset="1" stop-color="#003780"/>
</linearGradient>
<linearGradient id="paint3_linear_4646_155" x1="20.5591" y1="89.7836" x2="163.723" y2="89.7836" gradientUnits="userSpaceOnUse">
<stop offset="0.3125" stop-color="#00A3EE"/>
<stop offset="0.591346" stop-color="#00A3FF"/>
<stop offset="1" stop-color="#003780"/>
</linearGradient>
<linearGradient id="paint4_linear_4646_155" x1="125.02" y1="92.6382" x2="139.692" y2="92.6382" gradientUnits="userSpaceOnUse">
<stop stop-color="#0085DB"/>
<stop offset="0.826923" stop-color="#004C98"/>
</linearGradient>
</defs>
</svg>
