<svg width="32" height="32" viewBox="0 0 32 32" fill="none" xmlns="http://www.w3.org/2000/svg">
<path d="M0 10.624C0 1.87514 1.87514 0 10.624 0H21.376C30.1249 0 32 1.87514 32 10.624V21.376C32 30.1249 30.1249 32 21.376 32H10.624C1.87514 32 0 30.1249 0 21.376V10.624Z" fill="url(#paint0_radial_4646_155)"/>
<path d="M7.34692 19.9928C7.01252 20.0121 6.76087 19.9792 6.47583 19.7688C6.1831 19.5027 6.02192 19.2361 5.98668 18.8413C5.98514 18.6935 5.99003 18.5476 5.99706 18.4005L6.00343 18.2271C6.0408 17.3068 6.10196 16.3887 6.16315 15.4711L6.17184 15.3383L6.1864 15.1132C6.32449 12.9858 6.46947 11.2692 6.80209 10.9026C7.04618 10.7129 7.29103 10.6067 7.61863 10.6347C7.97249 10.7019 8.24476 10.8248 8.48591 11.104C8.70082 11.503 8.74019 11.8352 8.68484 12.2611L8.66807 12.4213C8.65618 12.5331 8.49881 14.3613 8.48592 14.4729C8.45482 14.7432 8.42834 15.0141 8.40244 15.2852L8.38616 15.4542C8.30108 16.3712 8.26311 17.2958 8.2252 18.2189L8.2252 18.219L8.221 18.3213L8.21225 18.518C8.20695 18.638 8.20224 18.7581 8.19811 18.8783C8.17079 19.4848 7.94159 19.8181 7.34692 19.9928Z" fill="#00A3EE"/>
<path fill-rule="evenodd" clip-rule="evenodd" d="M4.83779 15.7861C4.56437 15.6478 4.26191 15.6139 4.012 15.8127C3.74864 16.0646 3.74864 16.0646 3.70145 17.0855L3.69648 17.1959C3.6165 18.9126 3.65012 20.6247 3.81605 22.3363L3.82699 22.4482C3.83726 22.5546 3.84762 22.661 3.85856 22.7673L3.86875 22.865C3.88809 23.0617 3.91427 23.244 3.99404 23.4286C4.13433 23.6192 4.2554 23.7156 4.49521 23.7789C4.7437 23.7887 4.9341 23.7429 5.12166 23.5843C5.32831 23.3137 5.303 23.0396 5.26232 22.7233C5.02026 20.9115 5.01784 19.0888 5.08666 17.2675L5.09669 17.0039L5.09753 16.9811C5.1013 16.8797 5.10507 16.7782 5.10934 16.6768L5.1126 16.5997L5.11807 16.4561C5.12909 16.2047 5.06957 15.9476 4.83779 15.7861ZM23.8143 21.1716C23.7809 20.9552 23.6897 20.8174 23.5432 20.6717C23.3171 20.5468 23.0643 20.5044 22.8395 20.6534C22.8116 20.6752 22.7845 20.6965 22.7573 20.7177L22.6656 20.7885C22.6066 20.8343 22.5474 20.8794 22.4878 20.9239L22.4036 20.9858C21.9727 21.3028 21.5379 21.6124 21.1006 21.9183C21.0003 21.9883 20.9004 22.0588 20.8008 22.1299C20.3963 22.4217 19.9812 22.6879 19.5611 22.9502C19.4016 23.0497 19.2428 23.1501 19.0845 23.2517C18.7241 23.483 18.3627 23.7092 17.9934 23.9224C17.9786 23.9308 17.9638 23.9391 17.9489 23.9475C17.6867 24.095 17.4136 24.2485 17.2434 24.524C17.1836 24.7343 17.1805 24.9213 17.2434 25.1337C17.3512 25.3089 17.4561 25.4279 17.6268 25.5222C17.8193 25.5671 17.9833 25.5557 18.1631 25.4632L18.2823 25.3871L18.4145 25.304C18.4981 25.251 18.582 25.1988 18.6664 25.1476C20.1966 24.2323 21.7034 23.253 23.146 22.1712L23.2245 22.1122C23.3703 22.004 23.5143 21.8964 23.6462 21.7669C23.7862 21.591 23.8248 21.4033 23.8143 21.1716ZM16.6318 25.7782C16.573 25.6042 16.4978 25.4872 16.3441 25.3823C16.1312 25.2778 15.9308 25.2686 15.718 25.3691L15.6413 25.4097L15.5517 25.4566C14.2278 26.1548 12.8857 26.8078 11.4807 27.3268L11.3797 27.3639L11.1887 27.4347C10.0815 27.8327 10.5409 29.0306 11.5535 28.6497L11.6434 28.6141C11.7435 28.5759 11.8435 28.5374 11.9433 28.4983C12.0137 28.4706 12.0842 28.4431 12.1548 28.4157C12.6432 28.2262 13.1278 28.0304 13.6039 27.8114C13.7153 27.7595 13.8268 27.7079 13.9385 27.6567C14.685 27.316 15.4292 26.9604 16.1438 26.5559L16.2234 26.5101C16.3141 26.4595 16.3901 26.4092 16.4738 26.3459C16.6095 26.157 16.6529 26.0073 16.6318 25.7782ZM16.2056 20.0431C16.1147 19.8644 16.0143 19.7576 15.8333 19.6703C15.6407 19.6493 15.4905 19.6507 15.3201 19.744C14.5133 20.1909 13.6983 20.6179 12.8651 21.0131L12.7736 21.0564C12.4655 21.2025 12.1574 21.3485 11.8455 21.4863L11.7745 21.5176C11.6872 21.5565 10.7164 22.0535 10.629 22.0922C10.6115 22.0997 10.594 22.1069 10.5767 22.1142C10.3951 22.19 10.2284 22.2596 10.1055 22.4236C10.0035 22.61 9.97922 22.7531 10.0217 22.9658C10.1001 23.1298 10.1748 23.2536 10.3378 23.3367C10.5532 23.4166 10.7034 23.4128 10.9219 23.333L11.0362 23.2826C11.1087 23.2507 12.0645 22.7603 12.1368 22.7278L12.2221 22.6894C12.9988 22.3424 13.7621 21.9692 14.514 21.5712C14.6717 21.487 14.8295 21.4031 14.9888 21.3219C15.0791 21.2761 15.1694 21.2301 15.2596 21.1841L15.3959 21.1146C15.4225 21.1013 15.4492 21.088 15.4758 21.0749C15.7595 20.9344 16.0358 20.7975 16.2056 20.516C16.2519 20.345 16.251 20.2138 16.2056 20.0431ZM21.5694 19.9989C21.5069 19.6923 21.3457 19.5032 21.0967 19.3067C20.7225 19.1469 20.3776 19.1214 20.0106 19.3098L17.3495 21.0404L17.1907 21.1269C17.0732 21.1913 16.9555 21.2555 16.8377 21.3197L16.6491 21.4224L16.5893 21.455C15.6204 21.9834 14.6511 22.5119 13.6683 23.0156L13.5428 23.0796C13.0881 23.312 12.6315 23.5397 12.1695 23.7578L12.0369 23.8202C11.8282 23.9184 11.0256 24.2928 10.8159 24.3888L10.7003 24.4417L10.4833 24.5419C10.1508 24.6936 9.91257 24.8668 9.68124 25.146C9.38972 25.78 9.69297 26.2912 10.3314 26.5395C10.7165 26.5997 11.0865 26.5705 11.4281 26.4087L11.5808 26.3338C11.6981 26.2772 11.8154 26.2205 11.9326 26.1638C12.1229 26.0704 12.9071 25.7022 13.0986 25.6113C14.2349 25.0756 15.342 24.4889 16.4463 23.8937C16.5681 23.8281 16.6899 23.7625 16.8119 23.697C17.0087 23.5916 17.2052 23.4857 17.4015 23.3794L17.6237 23.2589L17.6715 23.2333C18.0979 23.0048 21.0428 21.1238 21.3931 20.7885C21.5663 20.5283 21.5946 20.3016 21.5694 19.9989ZM14.4015 9.41078C14.2967 9.35856 14.1915 9.30703 14.086 9.25618C13.6804 9.06801 13.3716 8.99264 12.9966 9.27682C12.8337 9.4686 12.7651 9.65061 12.7771 9.90197C12.8623 10.186 13.0042 10.3655 13.258 10.5133C13.3331 10.5483 13.408 10.5836 13.4828 10.6192L13.5668 10.6593C14.8506 11.2616 16.0708 11.9762 17.2524 12.7654C17.2916 12.792 17.3308 12.8193 17.3702 12.8468C17.6159 13.0183 17.8698 13.1954 18.1689 13.2203C18.4419 13.1931 18.5837 13.0713 18.7616 12.8659C18.8623 12.6611 18.8591 12.4933 18.8357 12.2686C18.82 12.1906 18.8089 12.1355 18.7858 12.0863C18.7305 11.9681 18.6063 11.8833 18.184 11.5952L18.0893 11.5318C16.9507 10.7662 15.765 10.0834 14.5374 9.47758L14.4015 9.41078ZM21.7702 8.42787C21.5322 8.23606 21.2914 8.04196 21.0172 7.91619C20.7018 7.86534 20.5137 7.90728 20.2765 8.13784C20.1323 8.36264 20.13 8.58278 20.153 8.84712C20.2801 9.12085 20.4822 9.27446 20.7127 9.44127C20.7939 9.49886 20.8748 9.5568 20.9555 9.61509L21.0783 9.70375C21.7392 10.1778 22.382 10.6786 23.0157 11.1938C23.1769 11.3259 24.6343 12.4144 24.798 12.5429L24.8951 12.6162C24.9957 12.6927 25.0582 12.7291 25.1805 12.7513C25.4215 12.7626 25.6059 12.7173 25.7884 12.539C25.9521 12.3376 25.9553 12.143 25.9529 11.883C25.9168 11.6452 25.8101 11.5205 25.6342 11.3775L25.5658 11.3237L25.4198 11.2061C25.3315 11.136 23.9487 10.1069 23.8612 10.0355C23.3625 9.62815 22.8542 9.23466 22.3367 8.85545L22.3338 8.8533C22.1648 8.72985 21.9962 8.60663 21.8313 8.47705C21.8109 8.4607 21.7905 8.44429 21.7702 8.42787ZM5.59532 10.9487C5.4174 10.5926 5.03257 10.3961 4.6669 10.6203C4.51214 10.7565 4.42904 10.9115 4.38652 11.1126L4.37141 11.1933C4.21337 11.9936 4.09081 12.8022 3.98516 13.611L3.95954 13.8094C3.94707 13.9034 3.93464 13.9975 3.92283 14.0917L3.912 14.1792C3.8526 14.6226 3.88276 15.009 4.32953 15.1977C4.53913 15.2357 4.70952 15.2064 4.88796 15.0859C5.07418 14.8995 5.11219 14.6765 5.14056 14.4208C5.14635 14.3649 5.15236 14.309 5.15862 14.2532L5.16897 14.1612C5.24734 13.453 5.35139 12.7523 5.47864 12.0512C5.48952 11.9915 5.50127 11.9312 5.51307 11.8707C5.57228 11.567 5.63309 11.2551 5.59532 10.9487ZM7.93084 21.4684C7.83748 21.1977 7.70203 21.0021 7.44028 20.853C7.02056 20.69 6.58564 20.7375 6.26735 21.04C5.76528 21.6009 5.76528 21.6009 6.18564 26.019C6.18981 26.0635 6.19395 26.1067 6.1981 26.1498C6.20268 26.2014 6.20681 26.2528 6.21092 26.3042C6.24282 26.7024 6.27405 27.0921 6.5135 27.4399C6.72274 27.6287 6.90413 27.7062 7.19362 27.7331C7.53283 27.7487 7.75503 27.6483 8.00835 27.4438C8.25765 27.1463 8.25574 26.8423 8.23499 26.4777C8.2234 26.3666 8.21187 26.2555 8.20089 26.1443L8.18843 26.0166C8.11775 25.3098 8.05795 24.604 8.03063 23.8949L8.02317 23.6884C8.01075 23.3476 7.99857 23.0068 7.98945 22.6659C7.98604 22.5359 7.98222 22.406 7.97801 22.276L7.97197 22.0922C7.96803 21.8826 7.96318 21.6764 7.93084 21.4684ZM7.09928 4.73297C6.8307 4.86967 6.69351 5.04865 6.56407 5.28533L6.50928 5.39042C6.01358 6.3367 5.5938 7.31962 5.24523 8.31157L5.21254 8.40499C5.19668 8.44951 5.17987 8.49488 5.16283 8.54088C5.03635 8.88231 4.89634 9.26029 5.02215 9.60806C5.28437 10.0806 5.87452 10.1834 6.35216 9.98298C6.70063 9.75384 6.70063 9.75384 6.90232 9.12245C6.95952 8.93874 7.01865 8.75548 7.07971 8.57268L7.11693 8.4615C7.30801 7.88773 7.5541 7.33511 7.8324 6.78766C7.89458 6.66577 7.95646 6.54377 8.01805 6.42167C8.0633 6.33158 8.10943 6.24181 8.15644 6.15237C8.63283 5.25161 8.07437 4.48476 7.09928 4.73297ZM20.2956 12.9567C20.2613 12.9365 20.224 12.9202 20.1542 12.8895C19.8529 12.8533 19.661 12.8533 19.4101 13.004C19.232 13.1274 19.122 13.2543 19.0825 13.454C19.062 13.7028 19.1436 13.8794 19.3271 14.0777C19.5949 14.3294 19.8237 14.5839 19.9969 14.892C20.2004 15.345 20.2706 15.829 20.0569 16.2863C19.998 16.4031 19.9437 16.5191 19.8966 16.6398C19.8456 16.9326 19.9244 17.1318 20.1233 17.3723C20.258 17.4837 20.3551 17.5442 20.541 17.5671C20.8608 17.58 21.0275 17.5396 21.2735 17.3648C21.7624 16.917 21.8177 16.1648 21.8219 15.576C21.7921 14.6852 21.2831 13.7707 20.544 13.1461L20.4465 13.0688C20.3704 13.0081 20.335 12.9799 20.2956 12.9567ZM16.7378 5.23442C16.5766 5.13977 16.415 5.04789 16.2498 4.96079C15.8133 4.76978 15.4009 4.82562 15.1442 5.27584C15.0561 5.49602 15.0468 5.66483 15.1059 5.89966C15.1458 6.00084 15.1733 6.07049 15.2137 6.13053C15.3029 6.26319 15.4552 6.34899 15.944 6.62432C16.1881 6.75979 16.3355 6.84435 16.3355 6.84435C16.5459 6.96352 16.7548 7.08559 16.9621 7.21052L17.0785 7.28078C17.2844 7.40402 17.4903 7.52725 17.6934 7.65569L17.8325 7.74413L18.1087 7.91619C18.4398 8.13231 18.7056 8.25922 19.1021 8.19063C19.2858 8.10901 19.3857 8.00105 19.5011 7.83171C19.6065 7.60557 19.5963 7.38449 19.5562 7.1406C19.4754 6.87117 19.4754 6.87117 18.9926 6.59626C18.8015 6.48821 18.6129 6.37524 18.427 6.25743C17.9288 5.94156 17.4277 5.63118 16.9174 5.33737L16.7378 5.23442ZM13.4972 3.92261L13.4083 3.89513C12.2554 3.53238 10.1617 2.95739 9.01711 3.60116C8.8521 3.75206 8.78771 3.88018 8.75322 4.11251C8.7554 4.32808 8.81939 4.50333 8.95182 4.66237C9.15171 4.84281 9.15171 4.84281 9.84742 4.81792C9.99341 4.81243 10.1393 4.8093 10.2854 4.80616L10.3923 4.80396C10.8557 4.79318 11.3066 4.82831 11.7646 4.909L11.8946 4.93316C12.2308 4.99489 12.5588 5.06985 12.8861 5.17509C13.1246 5.25573 13.3475 5.31629 13.5972 5.33735C13.8258 5.26171 13.9655 5.17528 14.086 4.9454C14.1369 4.71327 14.1424 4.5997 14.0833 4.36973C13.9459 4.11584 13.7503 4.00776 13.4972 3.92261ZM19.7177 17.9404C19.6924 17.7455 19.5939 17.6402 19.4472 17.5185C19.185 17.358 18.9262 17.4322 18.6991 17.6071C18.2552 17.9544 17.7979 18.2933 17.3139 18.5828L17.2434 18.6244L17.1752 18.6647C17.1381 18.6866 17.1002 18.7081 17.0621 18.7297C16.8531 18.8483 16.6381 18.9702 16.5151 19.1812C16.4469 19.3481 16.4542 19.4987 16.5035 19.6703C16.5944 19.849 16.6948 19.9558 16.8758 20.0431C16.9909 20.0558 17.079 20.0656 17.166 20.0592C17.4493 20.0383 17.72 19.8454 18.8728 19.0237L18.9583 18.9622C19.1678 18.8119 19.3673 18.6534 19.5562 18.4776C19.7138 18.3042 19.7208 18.1656 19.7177 17.9404ZM28.0583 14.198C27.928 13.931 27.8207 13.754 27.5031 13.5953C26.9726 13.4808 26.6474 13.6233 26.401 14.0056C26.3828 14.1748 26.3934 14.2956 26.4628 14.4568C26.523 14.5657 26.5807 14.6754 26.6358 14.786C27.1785 15.9282 27.1652 17.2238 26.5469 18.3428C26.4069 18.5932 26.3466 18.7594 26.401 19.032C26.5238 19.2 26.6391 19.2772 26.8427 19.3846C27.0967 19.4555 27.198 19.5139 27.4573 19.4608C27.7028 19.3664 27.8407 19.1454 27.9527 18.953L28.0218 18.8268L28.1011 18.6878C28.8364 17.3036 28.7955 15.7058 28.1165 14.3138L28.0583 14.198Z" fill="url(#paint1_linear_4646_155)"/>
<path fill-rule="evenodd" clip-rule="evenodd" d="M12.1716 9.29549L12.157 9.38442C12.1008 9.71816 12.0315 10.0495 11.961 10.3807L11.9189 10.5803C11.8898 10.7185 11.8605 10.8567 11.8312 10.9948C11.7939 11.1703 11.7568 11.3458 11.7199 11.5213C11.6982 11.6247 11.6767 11.7262 11.6552 11.8278C11.6343 11.9265 11.6134 12.0253 11.5921 12.1262C11.5279 12.431 11.4624 12.7355 11.3882 13.0384C11.314 13.3413 11.1692 13.4585 10.908 13.5638C10.6092 13.6173 10.4017 13.6065 10.107 13.4937C9.71839 13.2654 9.59764 13.0389 9.68254 12.615L9.70271 12.5078C9.72485 12.391 9.74784 12.2743 9.77088 12.1576C9.78661 12.076 9.80231 11.9944 9.81798 11.9129C9.93368 11.3162 10.0582 10.7211 10.1865 10.1267L10.212 10.0087C10.2583 9.7952 10.3055 9.58193 10.3542 9.36889C10.3737 9.28273 10.3925 9.19645 10.4111 9.11017C10.4223 9.06145 10.4335 9.01274 10.4448 8.96406L10.4722 8.84124C10.5398 8.67108 10.6621 8.53736 10.8847 8.45896C11.4696 8.27043 12.2945 8.57262 12.1716 9.29549ZM11.1979 14.5262C11.1098 14.3398 10.9853 14.214 10.7506 14.1131C10.4933 14.0349 10.2087 14.0304 9.97337 14.1317L9.86111 14.1901L9.74854 14.2467C9.54563 14.3994 9.51499 14.603 9.48762 14.8092L9.4774 14.9C9.34193 16.0601 9.30307 17.2344 9.40741 18.4036L9.41906 18.5206C9.44158 18.7722 9.48381 18.9574 9.67296 19.1774C9.91326 19.3312 10.1076 19.3772 10.4226 19.3856C10.68 19.3711 10.8204 19.282 10.9919 19.1554C11.1882 18.9112 11.1882 18.9112 11.1332 18.3183C11.0599 17.5765 11.0555 16.8419 11.1075 16.1028C11.1136 16.0156 11.1197 15.9284 11.1257 15.8411L11.1264 15.8302C11.1382 15.6573 11.15 15.4845 11.1641 15.3117C11.171 15.2272 11.1775 15.1427 11.1836 15.0581L11.192 14.938C11.2048 14.7998 11.2167 14.665 11.1979 14.5262Z" fill="url(#paint2_linear_4646_155)"/>
<path fill-rule="evenodd" clip-rule="evenodd" d="M12.1604 5.83104L11.9535 5.73862C11.9003 5.71446 11.8465 5.6889 11.7922 5.6631C11.4656 5.50791 11.1195 5.34343 10.753 5.4143C10.5345 5.47818 10.3852 5.65317 10.2713 5.83418C10.216 6.03002 10.2081 6.17863 10.2713 6.37303C10.4267 6.64698 10.4267 6.64698 11.4795 7.09982C12.1474 7.38706 12.807 7.68589 13.4585 8.00631L13.5915 8.07193C14.707 8.62135 15.807 9.19609 16.889 9.80416L16.9808 9.85577C17.1437 9.94666 20.118 11.6951 20.2765 11.793C20.327 11.8246 20.3779 11.8576 20.4288 11.8907C20.7134 12.0754 21.0077 12.2664 21.3563 12.2772C21.5587 12.2537 21.6986 12.2017 21.8488 12.0649C22.011 11.8798 22.0823 11.7104 22.0701 11.4703C21.9551 11.1085 21.7152 10.9504 21.3931 10.7629L21.265 10.6898C20.7897 10.4156 17.4983 8.49092 17.0169 8.22674C16.8805 8.15199 16.7441 8.07723 16.6081 8.0018C15.4014 7.33146 14.1516 6.73519 12.8919 6.16241L12.7946 6.1182C12.5836 6.02175 12.3722 5.92603 12.1604 5.83104Z" fill="url(#paint3_linear_4646_155)"/>
<path d="M9.80624 8.40118C9.80624 8.93934 9.37047 9.37561 8.83293 9.37561C8.29538 9.37561 7.85962 8.93934 7.85962 8.40118C7.85962 7.86302 8.29538 7.42676 8.83293 7.42676C9.37047 7.42676 9.80624 7.86302 9.80624 8.40118Z" fill="#01A3EE"/>
<ellipse cx="10.4293" cy="20.6778" rx="0.856513" ry="0.857495" fill="#00A2EE"/>
<ellipse cx="9.18343" cy="28.1232" rx="0.778649" ry="0.818518" fill="#00A2EE"/>
<path d="M23.8608 13.9746C23.8608 13.9746 24.5176 15.4208 24.4838 16.5471C24.4527 17.5807 23.9387 19.0026 23.9387 19.0026" stroke="url(#paint4_linear_4646_155)" stroke-width="2.01324" stroke-linecap="round"/>
<defs>
<radialGradient id="paint0_radial_4646_155" cx="0" cy="0" r="1" gradientTransform="matrix(-0.366013 19.7782 -19.7782 -0.578018 16 16)" gradientUnits="userSpaceOnUse">
<stop offset="0.25887" stop-color="#002940"/>
<stop offset="0.819279" stop-color="#00131E"/>
<stop offset="1" stop-color="#000910"/>
</radialGradient>
<linearGradient id="paint1_linear_4646_155" x1="3.65503" y1="15.9613" x2="29.1064" y2="15.9613" gradientUnits="userSpaceOnUse">
<stop offset="0.3125" stop-color="#00A3EE"/>
<stop offset="0.591346" stop-color="#00A3FF"/>
<stop offset="1" stop-color="#003780"/>
</linearGradient>
<linearGradient id="paint2_linear_4646_155" x1="3.65503" y1="15.9613" x2="29.1064" y2="15.9613" gradientUnits="userSpaceOnUse">
<stop offset="0.3125" stop-color="#00A3EE"/>
<stop offset="0.591346" stop-color="#00A3FF"/>
<stop offset="1" stop-color="#003780"/>
</linearGradient>
<linearGradient id="paint3_linear_4646_155" x1="3.65503" y1="15.9613" x2="29.1064" y2="15.9613" gradientUnits="userSpaceOnUse">
<stop offset="0.3125" stop-color="#00A3EE"/>
<stop offset="0.591346" stop-color="#00A3FF"/>
<stop offset="1" stop-color="#003780"/>
</linearGradient>
<linearGradient id="paint4_linear_4646_155" x1="22.2257" y1="16.4691" x2="24.8342" y2="16.4691" gradientUnits="userSpaceOnUse">
<stop stop-color="#0085DB"/>
<stop offset="0.826923" stop-color="#004C98"/>
</linearGradient>
</defs>
</svg>
