<svg width="16" height="16" viewBox="0 0 16 16" fill="none" xmlns="http://www.w3.org/2000/svg">
<path d="M0 5.312C0 0.937568 0.937568 0 5.312 0H10.688C15.0624 0 16 0.937568 16 5.312V10.688C16 15.0624 15.0624 16 10.688 16H5.312C0.937568 16 0 15.0624 0 10.688V5.312Z" fill="url(#paint0_radial_4646_155)"/>
<path d="M3.67346 9.99589C3.50626 10.0056 3.38044 9.9891 3.23791 9.88391C3.09155 9.75088 3.01096 9.61755 2.99334 9.42017C2.99257 9.34627 2.99501 9.27331 2.99853 9.19977L3.00171 9.11308C3.0204 8.65289 3.05098 8.19384 3.08158 7.73505L3.08592 7.66867L3.0932 7.55609C3.16224 6.49244 3.23473 5.63413 3.40104 5.45079C3.52309 5.35598 3.64551 5.30286 3.80932 5.31684C3.98625 5.35045 4.12238 5.41193 4.24296 5.5515C4.35041 5.75103 4.37009 5.91711 4.34242 6.13008L4.33403 6.21015C4.32809 6.26604 4.24941 7.18018 4.24296 7.23596C4.22741 7.3711 4.21417 7.50657 4.20122 7.64211L4.19308 7.72661C4.15054 8.18513 4.13156 8.64743 4.1126 9.10897L4.1126 9.10902L4.1105 9.16018L4.10612 9.2585C4.10347 9.31852 4.10112 9.37858 4.09906 9.43866C4.08539 9.74193 3.9708 9.90857 3.67346 9.99589Z" fill="#00A3EE"/>
<path fill-rule="evenodd" clip-rule="evenodd" d="M2.41877 7.89303C2.28206 7.82388 2.13084 7.80697 2.00588 7.90634C1.8742 8.03232 1.8742 8.03232 1.8506 8.54276L1.84812 8.59793C1.80813 9.45629 1.82494 10.3124 1.9079 11.1682L1.91337 11.2241C1.91851 11.2773 1.92369 11.3305 1.92916 11.3837L1.93425 11.4325C1.94392 11.5308 1.95702 11.622 1.9969 11.7143C2.06704 11.8096 2.12758 11.8578 2.24748 11.8895C2.37173 11.8943 2.46693 11.8714 2.56071 11.7922C2.66403 11.6569 2.65138 11.5198 2.63104 11.3617C2.51001 10.4558 2.5088 9.5444 2.54321 8.63374L2.54822 8.50196L2.54865 8.49055C2.55053 8.43984 2.55241 8.38911 2.55455 8.33842L2.55618 8.29985L2.55891 8.22803C2.56442 8.10237 2.53466 7.97381 2.41877 7.89303ZM11.907 10.5858C11.8903 10.4776 11.8447 10.4087 11.7715 10.3358C11.6584 10.2734 11.532 10.2522 11.4196 10.3267C11.4057 10.3376 11.3921 10.3482 11.3786 10.3588L11.3327 10.3943C11.3032 10.4171 11.2736 10.4397 11.2438 10.4619L11.2017 10.4929C10.9862 10.6514 10.7688 10.8062 10.5502 10.9592C10.5001 10.9941 10.4501 11.0294 10.4003 11.0649C10.198 11.2108 9.99046 11.344 9.78041 11.4751C9.7007 11.5249 9.62128 11.575 9.54213 11.6258C9.36191 11.7415 9.18121 11.8546 8.9966 11.9612C8.9892 11.9654 8.98177 11.9696 8.97432 11.9738C8.84322 12.0475 8.70669 12.1243 8.62157 12.262C8.59169 12.3672 8.59013 12.4607 8.62157 12.5668C8.67546 12.6545 8.72795 12.7139 8.81327 12.7611C8.90951 12.7835 8.99152 12.7779 9.08143 12.7316L9.14105 12.6936L9.20714 12.652C9.24891 12.6255 9.29089 12.5994 9.33309 12.5738C10.0982 12.1161 10.8516 11.6265 11.5729 11.0856L11.6121 11.0561C11.685 11.002 11.757 10.9482 11.823 10.8835C11.893 10.7955 11.9123 10.7017 11.907 10.5858ZM8.31577 12.8891C8.28639 12.8021 8.24876 12.7436 8.17192 12.6911C8.06546 12.6389 7.96529 12.6343 7.85886 12.6845L7.82052 12.7048L7.77575 12.7283C7.11377 13.0774 6.44272 13.4039 5.74021 13.6634L5.68973 13.682L5.59422 13.7174C5.04065 13.9164 5.27033 14.5153 5.77664 14.3248L5.8216 14.3071C5.87163 14.2879 5.92163 14.2687 5.97151 14.2492C6.00673 14.2353 6.04198 14.2215 6.07726 14.2078C6.32147 14.1131 6.56379 14.0152 6.80185 13.9057C6.85752 13.8797 6.91327 13.854 6.96911 13.8284C7.34237 13.658 7.71449 13.4802 8.07178 13.278L8.1116 13.255C8.15691 13.2297 8.19494 13.2046 8.23679 13.173C8.30464 13.0785 8.32631 13.0037 8.31577 12.8891ZM8.10269 10.0215C8.05723 9.93221 8.00701 9.87878 7.91655 9.83517C7.82025 9.82464 7.74512 9.82537 7.65992 9.87202C7.25655 10.0954 6.84902 10.309 6.43242 10.5065L6.38667 10.5282C6.23262 10.6012 6.0786 10.6743 5.92265 10.7431L5.88713 10.7588C5.84346 10.7783 5.35807 11.0267 5.31439 11.0461C5.30561 11.0498 5.29688 11.0535 5.28823 11.0571C5.19741 11.095 5.11408 11.1298 5.05261 11.2118C5.00161 11.305 4.98949 11.3765 5.01073 11.4829C5.04991 11.5649 5.08727 11.6268 5.1688 11.6684C5.27649 11.7083 5.35156 11.7064 5.46083 11.6665L5.51797 11.6413C5.55424 11.6253 6.03215 11.3802 6.06829 11.3639L6.11093 11.3447C6.49929 11.1712 6.88094 10.9846 7.2569 10.7856C7.33575 10.7435 7.41464 10.7016 7.49426 10.6609C7.53943 10.638 7.58458 10.6151 7.6297 10.592L7.69782 10.5573C7.71115 10.5506 7.72449 10.544 7.7378 10.5374C7.87961 10.4672 8.01777 10.3988 8.10269 10.258C8.12585 10.1725 8.1254 10.1069 8.10269 10.0215ZM10.7846 9.99943C10.7533 9.84616 10.6727 9.7516 10.5483 9.65334C10.3611 9.57345 10.1887 9.5607 10.0052 9.65488L8.67461 10.5202L8.59524 10.5635C8.53645 10.5956 8.47762 10.6278 8.41875 10.6598L8.32441 10.7112L8.29452 10.7275C7.81006 10.9917 7.32544 11.2559 6.83403 11.5078L6.77128 11.5398C6.54394 11.656 6.31562 11.7698 6.08463 11.8789L6.01833 11.9101C5.91398 11.9592 5.51269 12.1464 5.40782 12.1944L5.35002 12.2208L5.24154 12.271C5.07526 12.3468 4.95616 12.4334 4.8405 12.573C4.69474 12.89 4.84636 13.1456 5.16559 13.2698C5.35813 13.2998 5.54311 13.2853 5.71395 13.2043L5.79026 13.1669C5.84892 13.1386 5.90756 13.1103 5.96618 13.0819C6.06132 13.0352 6.45345 12.8511 6.5492 12.8056C7.11731 12.5378 7.67088 12.2444 8.22304 11.9469C8.28391 11.914 8.34484 11.8812 8.40583 11.8485C8.50422 11.7958 8.60249 11.7429 8.70064 11.6897L8.81173 11.6295L8.83563 11.6167C9.04884 11.5024 10.5213 10.5619 10.6964 10.3943C10.783 10.2641 10.7972 10.1508 10.7846 9.99943ZM7.20062 4.70539C7.14821 4.67928 7.09562 4.65352 7.04288 4.62809C6.8401 4.53401 6.68567 4.49632 6.49818 4.63841C6.41674 4.7343 6.38243 4.82531 6.38843 4.95099C6.43103 5.09301 6.50198 5.18276 6.62888 5.25667C6.66641 5.27417 6.70387 5.29182 6.74127 5.3096L6.78329 5.32963C7.42516 5.6308 8.0353 5.9881 8.6261 6.38271C8.64567 6.39598 8.66527 6.40966 8.68498 6.42341C8.80785 6.50914 8.93477 6.59769 9.08433 6.61017C9.22082 6.59655 9.2917 6.53565 9.38067 6.43294C9.43101 6.33053 9.4294 6.24667 9.4177 6.13432C9.40986 6.0953 9.40433 6.06776 9.3928 6.04313C9.36515 5.98404 9.30302 5.94165 9.09186 5.79758L9.04453 5.76592C8.47525 5.3831 7.88237 5.04168 7.26859 4.73879L7.20062 4.70539ZM10.885 4.21393C10.766 4.11803 10.6456 4.02098 10.5085 3.9581C10.3508 3.93267 10.2567 3.95364 10.1381 4.06892C10.0661 4.18132 10.0649 4.29139 10.0764 4.42356C10.1399 4.56043 10.241 4.63723 10.3562 4.72064C10.3968 4.74943 10.4373 4.7784 10.4776 4.80754L10.539 4.85187C10.8695 5.08888 11.1909 5.3393 11.5077 5.5969C11.5883 5.66293 12.317 6.20721 12.3989 6.27147L12.4474 6.30809C12.4977 6.34633 12.529 6.36457 12.5901 6.37565C12.7106 6.3813 12.8028 6.35867 12.8941 6.26948C12.9759 6.16881 12.9775 6.0715 12.9763 5.9415C12.9583 5.82259 12.905 5.76026 12.817 5.68876L12.7828 5.66185L12.7098 5.60307C12.6656 5.56798 11.9742 5.05345 11.9305 5.01776C11.6811 4.81407 11.427 4.61733 11.1682 4.42773L11.1668 4.42665C11.0823 4.36493 10.998 4.30332 10.9155 4.23853C10.9053 4.23035 10.8952 4.22215 10.885 4.21393ZM2.79754 5.47437C2.70858 5.29629 2.51616 5.19804 2.33333 5.31013C2.25595 5.37823 2.2144 5.45576 2.19314 5.55631L2.18558 5.59666C2.10656 5.99681 2.04528 6.4011 1.99246 6.80548L1.97965 6.90468C1.97341 6.95171 1.9672 6.99875 1.9613 7.04583L1.95588 7.08958C1.92618 7.31128 1.94126 7.5045 2.16464 7.59886C2.26944 7.61784 2.35464 7.60319 2.44386 7.54296C2.53697 7.44974 2.55598 7.33826 2.57016 7.21042C2.57305 7.18245 2.57606 7.15451 2.57919 7.12659L2.58436 7.0806C2.62355 6.72652 2.67557 6.37613 2.7392 6.02562C2.74464 5.99573 2.75051 5.9656 2.75641 5.93533C2.78602 5.7835 2.81642 5.62755 2.79754 5.47437ZM3.9653 10.7342C3.91862 10.5988 3.85089 10.501 3.72002 10.4265C3.51016 10.345 3.2927 10.3688 3.13356 10.52C2.88252 10.8004 2.88252 10.8004 3.0927 13.0095C3.09478 13.0318 3.09685 13.0533 3.09893 13.0749C3.10122 13.1007 3.10328 13.1264 3.10534 13.1521C3.12129 13.3512 3.1369 13.5461 3.25663 13.72C3.36125 13.8143 3.45194 13.8531 3.59669 13.8665C3.76629 13.8743 3.87739 13.8242 4.00405 13.7219C4.1287 13.5732 4.12775 13.4211 4.11737 13.2389C4.11158 13.1833 4.10582 13.1277 4.10032 13.0722L4.09409 13.0083C4.05875 12.6549 4.02885 12.302 4.01519 11.9474L4.01146 11.8442C4.00525 11.6738 3.99916 11.5034 3.9946 11.333C3.9929 11.268 3.99099 11.203 3.98888 11.138L3.98586 11.0461C3.9839 10.9413 3.98147 10.8382 3.9653 10.7342ZM3.54952 2.36649C3.41523 2.43484 3.34663 2.52433 3.28191 2.64267L3.25452 2.69521C3.00667 3.16835 2.79678 3.65981 2.62249 4.15579L2.60615 4.20249C2.59822 4.22475 2.58981 4.24744 2.58129 4.27044C2.51805 4.44116 2.44805 4.63015 2.51095 4.80403C2.64206 5.04029 2.93714 5.09171 3.17596 4.99149C3.35019 4.87692 3.35019 4.87692 3.45104 4.56122C3.47964 4.46937 3.5092 4.37774 3.53973 4.28634L3.55834 4.23075C3.65388 3.94386 3.77693 3.66756 3.91608 3.39383C3.94717 3.33289 3.97811 3.27189 4.0089 3.21084C4.03153 3.16579 4.05459 3.12091 4.0781 3.07619C4.31629 2.62581 4.03706 2.24238 3.54952 2.36649ZM10.1477 6.47835C10.1305 6.46826 10.1119 6.46008 10.077 6.44477C9.92634 6.42666 9.83036 6.42663 9.70493 6.502C9.61588 6.56372 9.56086 6.62713 9.54113 6.72701C9.5309 6.85139 9.57168 6.9397 9.66341 7.03884C9.79732 7.16471 9.91175 7.29196 9.99832 7.44598C10.1001 7.67248 10.1352 7.91449 10.0283 8.14317C9.99888 8.20156 9.97174 8.25953 9.94817 8.31991C9.92267 8.4663 9.96208 8.56592 10.0615 8.68617C10.1289 8.74187 10.1774 8.77211 10.2704 8.78357C10.4303 8.79001 10.5136 8.76982 10.6366 8.68238C10.8811 8.45849 10.9087 8.08239 10.9108 7.78802C10.8959 7.34261 10.6414 6.88537 10.2719 6.57304L10.2231 6.53442C10.1851 6.50407 10.1674 6.48995 10.1477 6.47835ZM8.3688 2.61721C8.28817 2.56989 8.20736 2.52395 8.12477 2.48039C7.90655 2.38489 7.70031 2.41281 7.57197 2.63792C7.52794 2.74801 7.52329 2.83242 7.55281 2.94983C7.57277 3.00042 7.58651 3.03524 7.60671 3.06527C7.65133 3.1316 7.72748 3.17449 7.97187 3.31216C8.09391 3.3799 8.16764 3.42217 8.16764 3.42217C8.27283 3.48176 8.37726 3.54279 8.48092 3.60526L8.53911 3.64039C8.64209 3.70201 8.74501 3.76363 8.84656 3.82784L8.91615 3.87206L9.05425 3.9581C9.2198 4.06615 9.35267 4.12961 9.55094 4.09532C9.64279 4.05451 9.69274 4.00053 9.75042 3.91586C9.80312 3.80279 9.79805 3.69225 9.778 3.5703C9.73756 3.43559 9.73756 3.43559 9.4962 3.29813C9.40061 3.24411 9.30631 3.18762 9.21337 3.12872C8.96426 2.97078 8.71375 2.81559 8.45858 2.66868L8.3688 2.61721ZM6.74849 1.96131L6.70403 1.94756C6.1276 1.76619 5.08071 1.47869 4.50843 1.80058C4.42593 1.87603 4.39373 1.94009 4.37649 2.05626C4.37758 2.16404 4.40957 2.25167 4.47579 2.33118C4.57574 2.42141 4.57574 2.42141 4.92359 2.40896C4.99658 2.40622 5.06955 2.40465 5.14257 2.40308L5.19603 2.40198C5.42771 2.39659 5.6532 2.41415 5.8822 2.4545L5.94717 2.46658C6.11527 2.49744 6.27929 2.53492 6.44294 2.58754C6.56215 2.62786 6.67361 2.65814 6.79846 2.66868C6.91279 2.63085 6.98264 2.58764 7.04288 2.4727C7.06835 2.35664 7.07106 2.29985 7.0415 2.18486C6.97285 2.05792 6.87501 2.00388 6.74849 1.96131ZM9.85872 8.97021C9.84608 8.87276 9.79684 8.82009 9.72346 8.75925C9.59238 8.679 9.46297 8.71609 9.34942 8.80355C9.12746 8.9772 8.89882 9.14667 8.65683 9.29141L8.62157 9.31221L8.58747 9.33234C8.56892 9.34329 8.54998 9.35404 8.53093 9.36484C8.42641 9.42413 8.31894 9.4851 8.25743 9.59058C8.22333 9.67405 8.22696 9.74935 8.25161 9.83517C8.29707 9.9245 8.34729 9.97792 8.43775 10.0215C8.49533 10.0279 8.53939 10.0328 8.58286 10.0296C8.72452 10.0191 8.85986 9.92268 9.43628 9.51185L9.47902 9.48109C9.58378 9.40595 9.68352 9.32669 9.778 9.23882C9.85676 9.15209 9.8603 9.08279 9.85872 8.97021ZM14.029 7.09898C13.9639 6.96552 13.9102 6.877 13.7514 6.79766C13.4862 6.74042 13.3236 6.81166 13.2004 7.00281C13.1913 7.08741 13.1966 7.14781 13.2313 7.22841C13.2614 7.28284 13.2902 7.33771 13.3178 7.39299C13.5891 7.96412 13.5825 8.61188 13.2733 9.1714C13.2033 9.29662 13.1732 9.37971 13.2004 9.51598C13.2618 9.59999 13.3195 9.63861 13.4212 9.69229C13.5482 9.72775 13.5989 9.75697 13.7285 9.73038C13.8513 9.68319 13.9202 9.57271 13.9762 9.47649L14.0108 9.4134L14.0504 9.34388C14.4181 8.65178 14.3976 7.85288 14.0581 7.15688L14.029 7.09898Z" fill="url(#paint1_linear_4646_155)"/>
<path fill-rule="evenodd" clip-rule="evenodd" d="M6.08565 4.64774L6.07836 4.69221C6.05029 4.85908 6.01563 5.02474 5.98039 5.19037L5.95934 5.29015C5.94475 5.35925 5.93013 5.42833 5.91548 5.49741C5.89683 5.58515 5.87829 5.6729 5.85985 5.76067C5.84896 5.81235 5.83822 5.86309 5.82747 5.91392C5.81703 5.96326 5.80658 6.01267 5.79595 6.0631C5.76382 6.2155 5.73109 6.36777 5.69398 6.51921C5.65686 6.67065 5.58448 6.72926 5.45387 6.78191C5.30448 6.80865 5.20071 6.80324 5.0534 6.74686C4.85907 6.63272 4.7987 6.51946 4.84115 6.30749L4.85123 6.25392C4.8623 6.19548 4.8738 6.13713 4.88532 6.07879C4.89318 6.03801 4.90103 5.99722 4.90887 5.95643C4.96672 5.65808 5.02896 5.36054 5.09315 5.06335L5.10589 5.00433C5.12901 4.8976 5.15264 4.79097 5.17698 4.68444C5.18674 4.64137 5.19611 4.59823 5.20544 4.55508C5.21103 4.53072 5.21664 4.50637 5.22227 4.48203L5.23599 4.42062C5.2698 4.33554 5.33091 4.26868 5.44221 4.22948C5.73467 4.13521 6.14712 4.28631 6.08565 4.64774ZM5.59883 7.26308C5.55479 7.16992 5.49251 7.10702 5.3752 7.05654C5.24651 7.01746 5.10422 7.01519 4.98656 7.06585L4.93043 7.09504L4.87415 7.12334C4.7727 7.19968 4.75737 7.30148 4.74369 7.40458L4.73858 7.45002C4.67084 8.03004 4.65141 8.61721 4.70358 9.2018L4.70941 9.26032C4.72067 9.38612 4.74178 9.47869 4.83636 9.58872C4.95651 9.66562 5.05369 9.6886 5.21117 9.6928C5.33987 9.68553 5.41005 9.641 5.49585 9.57772C5.59397 9.45559 5.59397 9.45559 5.56646 9.15914C5.52981 8.78826 5.52763 8.42095 5.55361 8.05142C5.5567 8.0078 5.55973 7.96418 5.56272 7.92055L5.56309 7.91512C5.56897 7.82867 5.57486 7.74223 5.58191 7.65587C5.58537 7.61361 5.58862 7.57134 5.59166 7.52905L5.59587 7.469C5.60226 7.39992 5.60825 7.33252 5.59883 7.26308Z" fill="url(#paint2_linear_4646_155)"/>
<path fill-rule="evenodd" clip-rule="evenodd" d="M6.08009 2.91552L5.97665 2.86931C5.95004 2.85723 5.92315 2.84445 5.896 2.83155C5.7327 2.75395 5.55963 2.67172 5.37637 2.70715C5.26712 2.73909 5.1925 2.82658 5.13555 2.91709C5.10788 3.01501 5.10394 3.08932 5.13555 3.18652C5.21322 3.32349 5.21322 3.32349 5.73964 3.54991C6.07358 3.69353 6.40338 3.84295 6.72913 4.00315L6.79562 4.03596C7.35338 4.31067 7.90339 4.59804 8.4444 4.90208L8.49026 4.92788C8.57172 4.97333 10.0589 5.84754 10.1381 5.89651C10.1634 5.91229 10.1888 5.92881 10.2143 5.94533C10.3566 6.03771 10.5037 6.13322 10.678 6.13862C10.7792 6.12686 10.8492 6.10086 10.9243 6.03244C11.0054 5.93991 11.041 5.8552 11.0349 5.73513C10.9774 5.55427 10.8575 5.47518 10.6964 5.38145L10.6324 5.34492C10.3947 5.20782 8.74903 4.24546 8.50835 4.11337C8.44013 4.07599 8.37193 4.03862 8.30393 4.0009C7.70055 3.66573 7.07568 3.3676 6.44583 3.0812L6.3972 3.0591C6.29168 3.01087 6.18597 2.96301 6.08009 2.91552Z" fill="url(#paint3_linear_4646_155)"/>
<path d="M4.90324 4.2001C4.90324 4.46918 4.68536 4.68732 4.41659 4.68732C4.14781 4.68732 3.92993 4.46918 3.92993 4.2001C3.92993 3.93102 4.14781 3.71289 4.41659 3.71289C4.68536 3.71289 4.90324 3.93102 4.90324 4.2001Z" fill="#01A3EE"/>
<ellipse cx="5.21463" cy="10.3389" rx="0.428257" ry="0.428748" fill="#00A2EE"/>
<ellipse cx="4.59172" cy="14.0616" rx="0.389324" ry="0.409259" fill="#00A2EE"/>
<path d="M11.9304 6.9873C11.9304 6.9873 12.2588 7.7104 12.2419 8.27355C12.2264 8.79033 11.9694 9.50132 11.9694 9.50132" stroke="url(#paint4_linear_4646_155)" stroke-width="1.00662" stroke-linecap="round"/>
<defs>
<radialGradient id="paint0_radial_4646_155" cx="0" cy="0" r="1" gradientTransform="matrix(-0.183007 9.88912 -9.88912 -0.289009 8 8)" gradientUnits="userSpaceOnUse">
<stop offset="0.25887" stop-color="#002940"/>
<stop offset="0.819279" stop-color="#00131E"/>
<stop offset="1" stop-color="#000910"/>
</radialGradient>
<linearGradient id="paint1_linear_4646_155" x1="1.82739" y1="7.98065" x2="14.5531" y2="7.98065" gradientUnits="userSpaceOnUse">
<stop offset="0.3125" stop-color="#00A3EE"/>
<stop offset="0.591346" stop-color="#00A3FF"/>
<stop offset="1" stop-color="#003780"/>
</linearGradient>
<linearGradient id="paint2_linear_4646_155" x1="1.82739" y1="7.98065" x2="14.5531" y2="7.98065" gradientUnits="userSpaceOnUse">
<stop offset="0.3125" stop-color="#00A3EE"/>
<stop offset="0.591346" stop-color="#00A3FF"/>
<stop offset="1" stop-color="#003780"/>
</linearGradient>
<linearGradient id="paint3_linear_4646_155" x1="1.82739" y1="7.98065" x2="14.5531" y2="7.98065" gradientUnits="userSpaceOnUse">
<stop offset="0.3125" stop-color="#00A3EE"/>
<stop offset="0.591346" stop-color="#00A3FF"/>
<stop offset="1" stop-color="#003780"/>
</linearGradient>
<linearGradient id="paint4_linear_4646_155" x1="11.1128" y1="8.23457" x2="12.4171" y2="8.23457" gradientUnits="userSpaceOnUse">
<stop stop-color="#0085DB"/>
<stop offset="0.826923" stop-color="#004C98"/>
</linearGradient>
</defs>
</svg>
